<svg xmlns="http://www.w3.org/2000/svg" xmlns:xlink="http://www.w3.org/1999/xlink" xmlns:lucid="lucid" width="1570" height="888"><g transform="translate(-120 -147.39999999999986)" lucid:page-tab-id="0_0"><path d="M1090 880h580v135.4h-580z" stroke="#000" stroke-width="2" fill="#fff"/><use xlink:href="#a" transform="matrix(1,0,0,1,1095,885) translate(220.66358024691357 19.555555555555557)"/><path d="M1090 167.4h580v380h-580z" stroke="#000" stroke-width="2" fill="#fff"/><use xlink:href="#a" transform="matrix(1,0,0,1,1095,172.39999999999986) translate(220.66358024691357 19.555555555555557)"/><path d="M140 476.45h260v202.7H140z" stroke="#000" stroke-width="2" fill="#fff"/><use xlink:href="#b" transform="matrix(1,0,0,1,145,481.44999999999993) translate(41.88271604938272 87.61111111111111)"/><use xlink:href="#c" transform="matrix(1,0,0,1,145,481.44999999999993) translate(182.25308641975306 87.61111111111111)"/><use xlink:href="#d" transform="matrix(1,0,0,1,145,481.44999999999993) translate(80.06172839506172 114.2777777777778)"/><path d="M520 280h220v155H520z" stroke="#000" stroke-width="2" fill="#fff"/><use xlink:href="#e" transform="matrix(1,0,0,1,525,285) translate(37.90123456790124 63.611111111111114)"/><use xlink:href="#f" transform="matrix(1,0,0,1,525,285) translate(23.08641975308643 90.27777777777777)"/><path d="M520 760h220v155H520z" stroke="#000" stroke-width="2" fill="#fff"/><use xlink:href="#g" transform="matrix(1,0,0,1,525,765) translate(15.709876543209887 63.611111111111114)"/><use xlink:href="#h" transform="matrix(1,0,0,1,525,765) translate(154.9074074074074 63.611111111111114)"/><use xlink:href="#i" transform="matrix(1,0,0,1,525,765) translate(23.08641975308643 90.27777777777777)"/><path d="M860 200h160v80H860z" stroke="#000" stroke-width="2" fill="#fff"/><use xlink:href="#j" transform="matrix(1,0,0,1,865,205) translate(4.1049382716049365 39.44444444444444)"/><path d="M860 435h160v80H860z" stroke="#000" stroke-width="2" fill="#fff"/><use xlink:href="#k" transform="matrix(1,0,0,1,865,440) translate(18.30246913580247 39.44444444444444)"/><path d="M860 915h160v80H860z" stroke="#000" stroke-width="2" fill="#fff"/><use xlink:href="#l" transform="matrix(1,0,0,1,865,920) translate(2.9938271604938365 39.44444444444444)"/><path d="M1120 220h160v74.8h-160z" stroke="#000" stroke-width="2" fill="#fff"/><use xlink:href="#m" transform="matrix(1,0,0,1,1125,225) translate(15.549999999999997 25.299999999999997)"/><use xlink:href="#n" transform="matrix(1,0,0,1,1125,225) translate(83.5 25.299999999999997)"/><use xlink:href="#o" transform="matrix(1,0,0,1,1125,225) translate(13.125 46.9)"/><use xlink:href="#p" transform="matrix(1,0,0,1,1125,225) translate(86.025 46.9)"/><path d="M1480 320h160v74.8h-160z" stroke="#000" stroke-width="2" fill="#fff"/><use xlink:href="#q" transform="matrix(1,0,0,1,1485,324.9999999999999) translate(7.125 36.1)"/><use xlink:href="#r" transform="matrix(1,0,0,1,1485,324.9999999999999) translate(99.025 36.1)"/><path d="M1120 917.6h160v74.8h-160z" stroke="#000" stroke-width="2" fill="#fff"/><use xlink:href="#s" transform="matrix(1,0,0,1,1125,922.6) translate(39.05 36.1)"/><path d="M1300 220h160v74.8h-160z" stroke="#000" stroke-width="2" fill="#fff"/><use xlink:href="#t" transform="matrix(1,0,0,1,1305,224.99999999999997) translate(45.55 14.500000000000002)"/><use xlink:href="#u" transform="matrix(1,0,0,1,1305,224.99999999999997) translate(22.125 36.1)"/><use xlink:href="#v" transform="matrix(1,0,0,1,1305,224.99999999999997) translate(51.575 57.7)"/><path d="M1120 320h160v74.8h-160z" stroke="#000" stroke-width="2" fill="#fff"/><use xlink:href="#w" transform="matrix(1,0,0,1,1125,324.9999999999999) translate(24.549999999999997 36.1)"/><use xlink:href="#x" transform="matrix(1,0,0,1,1125,324.9999999999999) translate(75.45 36.1)"/><path d="M1300 320h160v74.8h-160z" stroke="#000" stroke-width="2" fill="#fff"/><use xlink:href="#y" transform="matrix(1,0,0,1,1305,324.9999999999999) translate(10.799999999999997 25.299999999999997)"/><use xlink:href="#z" transform="matrix(1,0,0,1,1305,324.9999999999999) translate(101.3 25.299999999999997)"/><use xlink:href="#A" transform="matrix(1,0,0,1,1305,324.9999999999999) translate(11.174999999999997 46.9)"/><use xlink:href="#B" transform="matrix(1,0,0,1,1305,324.9999999999999) translate(89.025 46.9)"/><path d="M1480 220h160v74.8h-160z" stroke="#000" stroke-width="2" fill="#fff"/><use xlink:href="#C" transform="matrix(1,0,0,1,1485,224.99999999999997) translate(15.599999999999994 25.299999999999997)"/><use xlink:href="#D" transform="matrix(1,0,0,1,1485,224.99999999999997) translate(72.55 25.299999999999997)"/><use xlink:href="#E" transform="matrix(1,0,0,1,1485,224.99999999999997) translate(39.125 46.9)"/><path d="M1300 420h160v74.8h-160z" stroke="#000" stroke-width="2" fill="#fff"/><use xlink:href="#F" transform="matrix(1,0,0,1,1305,424.9999999999999) translate(27.049999999999997 25.299999999999997)"/><use xlink:href="#G" transform="matrix(1,0,0,1,1305,424.9999999999999) translate(27.049999999999997 46.9)"/><path d="M1480 420h160v74.8h-160z" stroke="#000" stroke-width="2" fill="#fff"/><use xlink:href="#H" transform="matrix(1,0,0,1,1485,424.9999999999998) translate(3.0749999999999886 36.1)"/><use xlink:href="#I" transform="matrix(1,0,0,1,1485,424.9999999999998) translate(77.02499999999999 36.1)"/><path d="M1300 918.4h160v74h-160z" stroke="#000" stroke-width="2" fill="#fff"/><use xlink:href="#C" transform="matrix(1,0,0,1,1305,923.4) translate(15.599999999999994 24.799999999999997)"/><use xlink:href="#D" transform="matrix(1,0,0,1,1305,923.4) translate(72.55 24.799999999999997)"/><use xlink:href="#E" transform="matrix(1,0,0,1,1305,923.4) translate(39.125 46.4)"/><path d="M1480 917.6h160v74h-160z" stroke="#000" stroke-width="2" fill="#fff"/><use xlink:href="#J" transform="matrix(1,0,0,1,1485,922.6) translate(24.624999999999993 35.6)"/><path d="M860 692h160v80H860z" stroke="#000" stroke-width="2" fill="#fff"/><use xlink:href="#K" transform="matrix(1,0,0,1,865,697) translate(3.4876543209876445 26.111111111111114)"/><use xlink:href="#L" transform="matrix(1,0,0,1,865,697) translate(120.64814814814815 26.111111111111114)"/><use xlink:href="#M" transform="matrix(1,0,0,1,865,697) translate(20.185185185185183 52.77777777777778)"/><path d="M1120 420h160v74.8h-160z" stroke="#000" stroke-width="2" fill="#fff"/><use xlink:href="#N" transform="matrix(1,0,0,1,1125,424.9999999999998) translate(2.5749999999999886 36.1)"/><use xlink:href="#O" transform="matrix(1,0,0,1,1125,424.9999999999998) translate(60.474999999999994 36.1)"/><use xlink:href="#P" transform="matrix(1,0,0,1,1125,424.9999999999998) translate(85.475 36.1)"/><path d="M160 360h117.33" stroke="#fff" stroke-width="2" fill="none"/><path d="M270 475.45V357.5h230.76" stroke="#000" stroke-width="2" fill="none"/><path d="M271 476.45h-2v-1h2zM515.76 357.5l-14.26 4.64v-9.28z"/><path d="M519 357.5l-18.5 6v-12zm-16.5 3.26l10.03-3.26-10.03-3.26z"/><path d="M270 680.15V837.5h230.76" stroke="#000" stroke-width="2" fill="none"/><path d="M271 680.15h-2v-1h2zM515.76 837.5l-14.26 4.64v-9.28z"/><path d="M519 837.5l-18.5 6v-12zm-16.5 3.26l10.03-3.26-10.03-3.26z"/><path d="M741 814.4h59V732h40.76" stroke="#000" stroke-width="2" fill="none"/><path d="M741 815.4h-1v-2h1zM855.76 732l-14.26 4.64v-9.28z"/><path d="M859 732l-18.5 6v-12zm-16.5 3.26l10.03-3.26-10.03-3.26z"/><path d="M741 857.87h59V955h40.76" stroke="#000" stroke-width="2" fill="none"/><path d="M741 858.87h-1v-2h1zM855.76 955l-14.26 4.64v-9.28z"/><path d="M859 955l-18.5 6v-12zm-16.5 3.26l10.03-3.26-10.03-3.26z"/><path d="M741 377.87h59V475h40.76" stroke="#000" stroke-width="2" fill="none"/><path d="M741 378.87h-1v-2h1zM855.76 475l-14.26 4.64v-9.28z"/><path d="M859 475l-18.5 6v-12zm-16.5 3.26l10.03-3.26-10.03-3.26z"/><path d="M741 333.87h59V240h40.76" stroke="#000" stroke-width="2" fill="none"/><path d="M741 334.87h-1v-2h1zM855.76 240l-14.26 4.64v-9.28z"/><path d="M859 240l-18.5 6v-12zm-16.5 3.26l10.03-3.26-10.03-3.26z"/><path d="M1021 240h34v93.87h15.76" stroke="#000" stroke-width="2" fill="none"/><path d="M1021 241h-1v-2h1zM1085.76 333.87l-14.26 4.63v-9.27z"/><path d="M1089 333.87l-18.5 6v-12.02zm-16.5 3.26l10.03-3.26-10.03-3.26z"/><path d="M1021 475h34v-95.8h15.76" stroke="#000" stroke-width="2" fill="none"/><path d="M1021 476h-1v-2h1zM1085.76 379.2l-14.26 4.64v-9.28z"/><path d="M1089 379.2l-18.5 6v-12zm-16.5 3.26l10.03-3.26-10.03-3.26z"/><path d="M1090 664.3h390v135.4h-390z" stroke="#000" stroke-width="2" fill="#fff"/><g><use xlink:href="#a" transform="matrix(1,0,0,1,1095,669.3) translate(125.66358024691357 19.555555555555557)"/></g><path d="M1120 697.6h160v74.8h-160z" stroke="#000" stroke-width="2" fill="#fff"/><g><use xlink:href="#Q" transform="matrix(1,0,0,1,1125,702.6) translate(18.074999999999996 25.299999999999997)"/><use xlink:href="#R" transform="matrix(1,0,0,1,1125,702.6) translate(74.975 25.299999999999997)"/><use xlink:href="#S" transform="matrix(1,0,0,1,1125,702.6) translate(38.074999999999996 46.9)"/></g><path d="M1300 698.4h160v74h-160z" stroke="#000" stroke-width="2" fill="#fff"/><g><use xlink:href="#T" transform="matrix(1,0,0,1,1305,703.4) translate(7.049999999999997 24.799999999999997)"/><use xlink:href="#R" transform="matrix(1,0,0,1,1305,703.4) translate(86 24.799999999999997)"/><use xlink:href="#S" transform="matrix(1,0,0,1,1305,703.4) translate(38.074999999999996 46.4)"/></g><path d="M1021 732h49.76" stroke="#000" stroke-width="2" fill="none"/><path d="M1021 733h-1v-2h1zM1085.76 732l-14.26 4.64v-9.28z"/><path d="M1089 732l-18.5 6v-12zm-16.5 3.26l10.03-3.26-10.03-3.26z"/><path d="M1021 955h49.76" stroke="#000" stroke-width="2" fill="none"/><path d="M1021 956h-1v-2h1zM1085.76 955l-14.26 4.64v-9.28z"/><path d="M1089 955l-18.5 6v-12zm-16.5 3.26l10.03-3.26-10.03-3.26z"/><defs><path d="M199 0l-22-63H83L61 0H9l90-248h61L250 0h-51zm-33-102l-36-108c-10 38-24 72-36 108h72" id="U"/><path d="M25 0v-261h50V0H25" id="V"/><path d="M195-6C206 82 75 100 31 46c-4-6-6-13-8-21l49-6c3 16 16 24 34 25 40 0 42-37 40-79-11 22-30 35-61 35-53 0-70-43-70-97 0-56 18-96 73-97 30 0 46 14 59 34l2-30h47zm-90-29c32 0 41-27 41-63 0-35-9-62-40-62-32 0-39 29-40 63 0 36 9 62 39 62" id="W"/><path d="M110-194c64 0 96 36 96 99 0 64-35 99-97 99-61 0-95-36-95-99 0-62 34-99 96-99zm-1 164c35 0 45-28 45-65 0-40-10-65-43-65-34 0-45 26-45 65 0 36 10 65 43 65" id="X"/><path d="M135-150c-39-12-60 13-60 57V0H25l-1-190h47c2 13-1 29 3 40 6-28 27-53 61-41v41" id="Y"/><path d="M25-224v-37h50v37H25zM25 0v-190h50V0H25" id="Z"/><path d="M115-3C79 11 28 4 28-45v-112H4v-33h27l15-45h31v45h36v33H77v99c-1 23 16 31 38 25v30" id="aa"/><path d="M220-157c-53 9-28 100-34 157h-49v-107c1-27-5-49-29-50C55-147 81-57 75 0H25l-1-190h47c2 12-1 28 3 38 10-53 101-56 108 0 13-22 24-43 59-42 82 1 51 116 57 194h-49v-107c-1-25-5-48-29-50" id="ab"/><path d="M137-138c1-29-70-34-71-4 15 46 118 7 119 86 1 83-164 76-172 9l43-7c4 19 20 25 44 25 33 8 57-30 24-41C81-84 22-81 20-136c-2-80 154-74 161-7" id="ac"/><g id="a"><use transform="matrix(0.06790123456790124,0,0,0.06790123456790124,0,0)" xlink:href="#U"/><use transform="matrix(0.06790123456790124,0,0,0.06790123456790124,17.58641975308642,0)" xlink:href="#V"/><use transform="matrix(0.06790123456790124,0,0,0.06790123456790124,24.376543209876544,0)" xlink:href="#W"/><use transform="matrix(0.06790123456790124,0,0,0.06790123456790124,39.24691358024692,0)" xlink:href="#X"/><use transform="matrix(0.06790123456790124,0,0,0.06790123456790124,54.11728395061729,0)" xlink:href="#Y"/><use transform="matrix(0.06790123456790124,0,0,0.06790123456790124,63.62345679012347,0)" xlink:href="#Z"/><use transform="matrix(0.06790123456790124,0,0,0.06790123456790124,70.4135802469136,0)" xlink:href="#aa"/><use transform="matrix(0.06790123456790124,0,0,0.06790123456790124,78.49382716049385,0)" xlink:href="#ab"/><use transform="matrix(0.06790123456790124,0,0,0.06790123456790124,100.22222222222226,0)" xlink:href="#X"/><use transform="matrix(0.06790123456790124,0,0,0.06790123456790124,115.09259259259262,0)" xlink:href="#ac"/></g><path d="M135-194c53 0 70 44 70 98 0 56-19 98-73 100-31 1-45-17-59-34 3 33 2 69 2 105H25l-1-265h48c2 10 0 23 3 31 11-24 29-35 60-35zM114-30c33 0 39-31 40-66 0-38-9-64-40-64-56 0-55 130 0 130" id="ad"/><path d="M185-48c-13 30-37 53-82 52C43 2 14-33 14-96s30-98 90-98c62 0 83 45 84 108H66c0 31 8 55 39 56 18 0 30-7 34-22zm-45-69c5-46-57-63-70-21-2 6-4 13-4 21h74" id="ae"/><path d="M135-194c87-1 58 113 63 194h-50c-7-57 23-157-34-157-59 0-34 97-39 157H25l-1-190h47c2 12-1 28 3 38 12-26 28-41 61-42" id="af"/><path d="M88-194c31-1 46 15 58 34l-1-101h50l1 261h-48c-2-10 0-23-3-31C134-8 116 4 84 4 32 4 16-41 15-95c0-56 19-97 73-99zm17 164c33 0 40-30 41-66 1-37-9-64-41-64s-38 30-39 65c0 43 13 65 39 65" id="ag"/><path d="M12 0v-35l95-120H19v-35h142v35L67-36h103V0H12" id="ah"/><path d="M133-34C117-15 103 5 69 4 32 3 11-16 11-54c-1-60 55-63 116-61 1-26-3-47-28-47-18 1-26 9-28 27l-52-2c7-38 36-58 82-57s74 22 75 68l1 82c-1 14 12 18 25 15v27c-30 8-71 5-69-32zm-48 3c29 0 43-24 42-57-32 0-66-3-65 30 0 17 8 27 23 27" id="ai"/><g id="b"><use transform="matrix(0.06172839506172839,0,0,0.06172839506172839,0,0)" xlink:href="#U"/><use transform="matrix(0.06172839506172839,0,0,0.06172839506172839,15.987654320987653,0)" xlink:href="#ad"/><use transform="matrix(0.06172839506172839,0,0,0.06172839506172839,29.50617283950617,0)" xlink:href="#Y"/><use transform="matrix(0.06172839506172839,0,0,0.06172839506172839,38.148148148148145,0)" xlink:href="#ae"/><use transform="matrix(0.06172839506172839,0,0,0.06172839506172839,50.49382716049382,0)" xlink:href="#af"/><use transform="matrix(0.06172839506172839,0,0,0.06172839506172839,64.01234567901234,0)" xlink:href="#ag"/><use transform="matrix(0.06172839506172839,0,0,0.06172839506172839,77.53086419753086,0)" xlink:href="#Z"/><use transform="matrix(0.06172839506172839,0,0,0.06172839506172839,83.7037037037037,0)" xlink:href="#ah"/><use transform="matrix(0.06172839506172839,0,0,0.06172839506172839,94.81481481481481,0)" xlink:href="#ai"/><use transform="matrix(0.06172839506172839,0,0,0.06172839506172839,107.1604938271605,0)" xlink:href="#ag"/><use transform="matrix(0.06172839506172839,0,0,0.06172839506172839,120.67901234567901,0)" xlink:href="#X"/></g><g id="c"><use transform="matrix(0.06172839506172839,0,0,0.06172839506172839,0,0)" xlink:href="#ag"/><use transform="matrix(0.06172839506172839,0,0,0.06172839506172839,13.518518518518517,0)" xlink:href="#ae"/></g><path d="M230 0l2-204L168 0h-37L68-204 70 0H24v-248h70l56 185 57-185h69V0h-46" id="aj"/><path d="M132-34C116-15 102 5 68 4 31 3 10-16 10-54c-1-60 55-63 116-61 1-26-3-47-28-47-18 1-26 9-28 27l-52-2c7-38 36-58 82-57s74 22 75 68l1 82c-1 14 12 18 25 15v27c-30 8-71 5-69-32zm-48 3c29 0 43-24 42-57-32 0-66-3-65 30 0 17 8 27 23 27zM66-208v-5l45-51h45v8l-60 48H66" id="ak"/><path d="M84 4C32 4 15-41 15-95c0-55 18-99 73-99 29 0 47 12 58 34l2-30h48l-1 265h-49V-32C136-9 114 4 84 4zm21-34c32 0 41-29 41-66 0-36-9-64-40-64-33 0-39 30-40 65 0 43 13 65 39 65" id="al"/><path d="M85 4C-2 5 27-109 22-190h50c7 57-23 150 33 157 60-5 35-97 40-157h50l1 190h-47c-2-12 1-28-3-38-12 25-28 42-61 42" id="am"/><g id="d"><use transform="matrix(0.06172839506172839,0,0,0.06172839506172839,0,0)" xlink:href="#aj"/><use transform="matrix(0.06172839506172839,0,0,0.06172839506172839,18.456790123456788,0)" xlink:href="#ak"/><use transform="matrix(0.06172839506172839,0,0,0.06172839506172839,30.80246913580247,0)" xlink:href="#al"/><use transform="matrix(0.06172839506172839,0,0,0.06172839506172839,44.32098765432099,0)" xlink:href="#am"/><use transform="matrix(0.06172839506172839,0,0,0.06172839506172839,57.839506172839506,0)" xlink:href="#Z"/><use transform="matrix(0.06172839506172839,0,0,0.06172839506172839,64.01234567901234,0)" xlink:href="#af"/><use transform="matrix(0.06172839506172839,0,0,0.06172839506172839,77.53086419753086,0)" xlink:href="#ai"/></g><g id="e"><use transform="matrix(0.06172839506172839,0,0,0.06172839506172839,0,0)" xlink:href="#U"/><use transform="matrix(0.06172839506172839,0,0,0.06172839506172839,15.987654320987653,0)" xlink:href="#ad"/><use transform="matrix(0.06172839506172839,0,0,0.06172839506172839,29.50617283950617,0)" xlink:href="#Y"/><use transform="matrix(0.06172839506172839,0,0,0.06172839506172839,38.148148148148145,0)" xlink:href="#ae"/><use transform="matrix(0.06172839506172839,0,0,0.06172839506172839,50.49382716049382,0)" xlink:href="#af"/><use transform="matrix(0.06172839506172839,0,0,0.06172839506172839,64.01234567901234,0)" xlink:href="#ag"/><use transform="matrix(0.06172839506172839,0,0,0.06172839506172839,77.53086419753086,0)" xlink:href="#Z"/><use transform="matrix(0.06172839506172839,0,0,0.06172839506172839,83.7037037037037,0)" xlink:href="#ah"/><use transform="matrix(0.06172839506172839,0,0,0.06172839506172839,94.81481481481481,0)" xlink:href="#ai"/><use transform="matrix(0.06172839506172839,0,0,0.06172839506172839,107.1604938271605,0)" xlink:href="#ag"/><use transform="matrix(0.06172839506172839,0,0,0.06172839506172839,120.67901234567901,0)" xlink:href="#X"/></g><path d="M128 0H69L1-190h53L99-40l48-150h52" id="an"/><g id="f"><use transform="matrix(0.06172839506172839,0,0,0.06172839506172839,0,0)" xlink:href="#ac"/><use transform="matrix(0.06172839506172839,0,0,0.06172839506172839,12.345679012345679,0)" xlink:href="#am"/><use transform="matrix(0.06172839506172839,0,0,0.06172839506172839,25.864197530864196,0)" xlink:href="#ad"/><use transform="matrix(0.06172839506172839,0,0,0.06172839506172839,39.382716049382715,0)" xlink:href="#ae"/><use transform="matrix(0.06172839506172839,0,0,0.06172839506172839,51.72839506172839,0)" xlink:href="#Y"/><use transform="matrix(0.06172839506172839,0,0,0.06172839506172839,60.37037037037037,0)" xlink:href="#an"/><use transform="matrix(0.06172839506172839,0,0,0.06172839506172839,72.71604938271605,0)" xlink:href="#Z"/><use transform="matrix(0.06172839506172839,0,0,0.06172839506172839,78.88888888888889,0)" xlink:href="#ac"/><use transform="matrix(0.06172839506172839,0,0,0.06172839506172839,91.23456790123457,0)" xlink:href="#Z"/><use transform="matrix(0.06172839506172839,0,0,0.06172839506172839,97.4074074074074,0)" xlink:href="#X"/><use transform="matrix(0.06172839506172839,0,0,0.06172839506172839,110.92592592592592,0)" xlink:href="#af"/><use transform="matrix(0.06172839506172839,0,0,0.06172839506172839,124.44444444444444,0)" xlink:href="#ai"/><use transform="matrix(0.06172839506172839,0,0,0.06172839506172839,136.79012345679013,0)" xlink:href="#ag"/><use transform="matrix(0.06172839506172839,0,0,0.06172839506172839,150.30864197530863,0)" xlink:href="#X"/></g><g id="g"><use transform="matrix(0.06172839506172839,0,0,0.06172839506172839,0,0)" xlink:href="#U"/><use transform="matrix(0.06172839506172839,0,0,0.06172839506172839,15.987654320987653,0)" xlink:href="#ad"/><use transform="matrix(0.06172839506172839,0,0,0.06172839506172839,29.50617283950617,0)" xlink:href="#Y"/><use transform="matrix(0.06172839506172839,0,0,0.06172839506172839,38.148148148148145,0)" xlink:href="#ae"/><use transform="matrix(0.06172839506172839,0,0,0.06172839506172839,50.49382716049382,0)" xlink:href="#af"/><use transform="matrix(0.06172839506172839,0,0,0.06172839506172839,64.01234567901234,0)" xlink:href="#ag"/><use transform="matrix(0.06172839506172839,0,0,0.06172839506172839,77.53086419753086,0)" xlink:href="#Z"/><use transform="matrix(0.06172839506172839,0,0,0.06172839506172839,83.7037037037037,0)" xlink:href="#ah"/><use transform="matrix(0.06172839506172839,0,0,0.06172839506172839,94.81481481481481,0)" xlink:href="#ai"/><use transform="matrix(0.06172839506172839,0,0,0.06172839506172839,107.1604938271605,0)" xlink:href="#ag"/><use transform="matrix(0.06172839506172839,0,0,0.06172839506172839,120.67901234567901,0)" xlink:href="#X"/></g><path d="M132-34C116-15 102 5 68 4 31 3 10-16 10-54c-1-60 55-63 116-61 1-26-3-47-28-47-18 1-26 9-28 27l-52-2c7-38 36-58 82-57s74 22 75 68l1 82c-1 14 12 18 25 15v27c-30 8-71 5-69-32zm-48 3c29 0 43-24 42-57-32 0-66-3-65 30 0 17 8 27 23 27zm82-228c-2 27-9 52-40 51-27-1-66-46-73 0H29c0-29 9-51 39-51 28 0 66 44 74 0h24" id="ao"/><g id="h"><use transform="matrix(0.06172839506172839,0,0,0.06172839506172839,0,0)" xlink:href="#af"/><use transform="matrix(0.06172839506172839,0,0,0.06172839506172839,13.518518518518517,0)" xlink:href="#ao"/><use transform="matrix(0.06172839506172839,0,0,0.06172839506172839,25.864197530864196,0)" xlink:href="#X"/></g><g id="i"><use transform="matrix(0.06172839506172839,0,0,0.06172839506172839,0,0)" xlink:href="#ac"/><use transform="matrix(0.06172839506172839,0,0,0.06172839506172839,12.345679012345679,0)" xlink:href="#am"/><use transform="matrix(0.06172839506172839,0,0,0.06172839506172839,25.864197530864196,0)" xlink:href="#ad"/><use transform="matrix(0.06172839506172839,0,0,0.06172839506172839,39.382716049382715,0)" xlink:href="#ae"/><use transform="matrix(0.06172839506172839,0,0,0.06172839506172839,51.72839506172839,0)" xlink:href="#Y"/><use transform="matrix(0.06172839506172839,0,0,0.06172839506172839,60.37037037037037,0)" xlink:href="#an"/><use transform="matrix(0.06172839506172839,0,0,0.06172839506172839,72.71604938271605,0)" xlink:href="#Z"/><use transform="matrix(0.06172839506172839,0,0,0.06172839506172839,78.88888888888889,0)" xlink:href="#ac"/><use transform="matrix(0.06172839506172839,0,0,0.06172839506172839,91.23456790123457,0)" xlink:href="#Z"/><use transform="matrix(0.06172839506172839,0,0,0.06172839506172839,97.4074074074074,0)" xlink:href="#X"/><use transform="matrix(0.06172839506172839,0,0,0.06172839506172839,110.92592592592592,0)" xlink:href="#af"/><use transform="matrix(0.06172839506172839,0,0,0.06172839506172839,124.44444444444444,0)" xlink:href="#ai"/><use transform="matrix(0.06172839506172839,0,0,0.06172839506172839,136.79012345679013,0)" xlink:href="#ag"/><use transform="matrix(0.06172839506172839,0,0,0.06172839506172839,150.30864197530863,0)" xlink:href="#X"/></g><path d="M67-125c0 53 21 87 73 88 37 1 54-22 65-47l45 17C233-25 199 4 140 4 58 4 20-42 15-125 8-235 124-281 211-232c18 10 29 29 36 50l-46 12c-8-25-30-41-62-41-52 0-71 34-72 86" id="ap"/><path d="M121-226c-27-7-43 5-38 36h38v33H83V0H34v-157H6v-33h28c-9-59 32-81 87-68v32" id="aq"/><path d="M190-63c-7 42-38 67-86 67-59 0-84-38-90-98-12-110 154-137 174-36l-49 2c-2-19-15-32-35-32-30 0-35 28-38 64-6 74 65 87 74 30" id="ar"/><path d="M190-63c-7 42-38 67-86 67-59 0-84-38-90-98-12-110 154-137 174-36l-49 2c-2-19-15-32-35-32-30 0-35 28-38 64-6 74 65 87 74 30zm-84 77c20 1 33 9 33 27 0 32-36 36-71 33V53c15 1 39 4 39-11 0-13-16-12-31-12L87 0h25" id="as"/><g id="j"><use transform="matrix(0.06172839506172839,0,0,0.06172839506172839,0,0)" xlink:href="#ap"/><use transform="matrix(0.06172839506172839,0,0,0.06172839506172839,15.987654320987653,0)" xlink:href="#V"/><use transform="matrix(0.06172839506172839,0,0,0.06172839506172839,22.160493827160494,0)" xlink:href="#ai"/><use transform="matrix(0.06172839506172839,0,0,0.06172839506172839,34.50617283950617,0)" xlink:href="#ac"/><use transform="matrix(0.06172839506172839,0,0,0.06172839506172839,46.85185185185185,0)" xlink:href="#ac"/><use transform="matrix(0.06172839506172839,0,0,0.06172839506172839,59.197530864197525,0)" xlink:href="#Z"/><use transform="matrix(0.06172839506172839,0,0,0.06172839506172839,65.37037037037037,0)" xlink:href="#aq"/><use transform="matrix(0.06172839506172839,0,0,0.06172839506172839,72.71604938271605,0)" xlink:href="#Z"/><use transform="matrix(0.06172839506172839,0,0,0.06172839506172839,78.88888888888889,0)" xlink:href="#ar"/><use transform="matrix(0.06172839506172839,0,0,0.06172839506172839,91.23456790123457,0)" xlink:href="#ai"/><use transform="matrix(0.06172839506172839,0,0,0.06172839506172839,103.58024691358025,0)" xlink:href="#as"/><use transform="matrix(0.06172839506172839,0,0,0.06172839506172839,115.92592592592594,0)" xlink:href="#ao"/><use transform="matrix(0.06172839506172839,0,0,0.06172839506172839,128.27160493827162,0)" xlink:href="#X"/></g><path d="M240-174c0 40-23 61-54 70L253 0h-59l-57-94H76V0H24v-248c93 4 217-23 216 74zM76-134c48-2 112 12 112-38 0-48-66-32-112-35v73" id="at"/><g id="k"><use transform="matrix(0.06172839506172839,0,0,0.06172839506172839,0,0)" xlink:href="#at"/><use transform="matrix(0.06172839506172839,0,0,0.06172839506172839,15.987654320987653,0)" xlink:href="#ae"/><use transform="matrix(0.06172839506172839,0,0,0.06172839506172839,28.333333333333332,0)" xlink:href="#W"/><use transform="matrix(0.06172839506172839,0,0,0.06172839506172839,41.85185185185185,0)" xlink:href="#Y"/><use transform="matrix(0.06172839506172839,0,0,0.06172839506172839,50.49382716049382,0)" xlink:href="#ae"/><use transform="matrix(0.06172839506172839,0,0,0.06172839506172839,62.8395061728395,0)" xlink:href="#ac"/><use transform="matrix(0.06172839506172839,0,0,0.06172839506172839,75.18518518518518,0)" xlink:href="#ac"/><use transform="matrix(0.06172839506172839,0,0,0.06172839506172839,87.53086419753086,0)" xlink:href="#ao"/><use transform="matrix(0.06172839506172839,0,0,0.06172839506172839,99.87654320987654,0)" xlink:href="#X"/></g><g id="l"><use transform="matrix(0.06172839506172839,0,0,0.06172839506172839,0,0)" xlink:href="#U"/><use transform="matrix(0.06172839506172839,0,0,0.06172839506172839,15.987654320987653,0)" xlink:href="#W"/><use transform="matrix(0.06172839506172839,0,0,0.06172839506172839,29.50617283950617,0)" xlink:href="#Y"/><use transform="matrix(0.06172839506172839,0,0,0.06172839506172839,38.148148148148145,0)" xlink:href="#am"/><use transform="matrix(0.06172839506172839,0,0,0.06172839506172839,51.666666666666664,0)" xlink:href="#ad"/><use transform="matrix(0.06172839506172839,0,0,0.06172839506172839,65.18518518518518,0)" xlink:href="#ai"/><use transform="matrix(0.06172839506172839,0,0,0.06172839506172839,77.53086419753086,0)" xlink:href="#ab"/><use transform="matrix(0.06172839506172839,0,0,0.06172839506172839,97.28395061728395,0)" xlink:href="#ae"/><use transform="matrix(0.06172839506172839,0,0,0.06172839506172839,109.62962962962963,0)" xlink:href="#af"/><use transform="matrix(0.06172839506172839,0,0,0.06172839506172839,123.14814814814815,0)" xlink:href="#aa"/><use transform="matrix(0.06172839506172839,0,0,0.06172839506172839,130.49382716049382,0)" xlink:href="#X"/></g><path d="M185-189c-5-48-123-54-124 2 14 75 158 14 163 119 3 78-121 87-175 55-17-10-28-26-33-46l33-7c5 56 141 63 141-1 0-78-155-14-162-118-5-82 145-84 179-34 5 7 8 16 11 25" id="au"/><path d="M84 4C-5 8 30-112 23-190h32v120c0 31 7 50 39 49 72-2 45-101 50-169h31l1 190h-30c-1-10 1-25-2-33-11 22-28 36-60 37" id="av"/><path d="M115-194c55 1 70 41 70 98S169 2 115 4C84 4 66-9 55-30l1 105H24l-1-265h31l2 30c10-21 28-34 59-34zm-8 174c40 0 45-34 45-75s-6-73-45-74c-42 0-51 32-51 76 0 43 10 73 51 73" id="aw"/><path d="M100-194c62-1 85 37 85 99 1 63-27 99-86 99S16-35 15-95c0-66 28-99 85-99zM99-20c44 1 53-31 53-75 0-43-8-75-51-75s-53 32-53 75 10 74 51 75" id="ax"/><path d="M114-163C36-179 61-72 57 0H25l-1-190h30c1 12-1 29 2 39 6-27 23-49 58-41v29" id="ay"/><path d="M59-47c-2 24 18 29 38 22v24C64 9 27 4 27-40v-127H5v-23h24l9-43h21v43h35v23H59v120" id="az"/><path d="M100-194c63 0 86 42 84 106H49c0 40 14 67 53 68 26 1 43-12 49-29l28 8c-11 28-37 45-77 45C44 4 14-33 15-96c1-61 26-98 85-98zm52 81c6-60-76-77-97-28-3 7-6 17-6 28h103" id="aA"/><g id="m"><use transform="matrix(0.05,0,0,0.05,0,0)" xlink:href="#au"/><use transform="matrix(0.05,0,0,0.05,12,0)" xlink:href="#av"/><use transform="matrix(0.05,0,0,0.05,22,0)" xlink:href="#aw"/><use transform="matrix(0.05,0,0,0.05,32,0)" xlink:href="#ax"/><use transform="matrix(0.05,0,0,0.05,42,0)" xlink:href="#ay"/><use transform="matrix(0.05,0,0,0.05,47.95,0)" xlink:href="#az"/><use transform="matrix(0.05,0,0,0.05,52.95,0)" xlink:href="#aA"/></g><path d="M137 0h-34L2-248h35l83 218 83-218h36" id="aB"/><path d="M96-169c-40 0-48 33-48 73s9 75 48 75c24 0 41-14 43-38l32 2c-6 37-31 61-74 61-59 0-76-41-82-99-10-93 101-131 147-64 4 7 5 14 7 22l-32 3c-4-21-16-35-41-35" id="aC"/><g id="n"><use transform="matrix(0.05,0,0,0.05,0,0)" xlink:href="#aB"/><use transform="matrix(0.05,0,0,0.05,11,0)" xlink:href="#aA"/><use transform="matrix(0.05,0,0,0.05,21,0)" xlink:href="#aC"/><use transform="matrix(0.05,0,0,0.05,30,0)" xlink:href="#az"/><use transform="matrix(0.05,0,0,0.05,35,0)" xlink:href="#ax"/><use transform="matrix(0.05,0,0,0.05,45,0)" xlink:href="#ay"/></g><path d="M240 0l2-218c-23 76-54 145-80 218h-23L58-218 59 0H30v-248h44l77 211c21-75 51-140 76-211h43V0h-30" id="aD"/><path d="M141-36C126-15 110 5 73 4 37 3 15-17 15-53c-1-64 63-63 125-63 3-35-9-54-41-54-24 1-41 7-42 31l-33-3c5-37 33-52 76-52 45 0 72 20 72 64v82c-1 20 7 32 28 27v20c-31 9-61-2-59-35zM48-53c0 20 12 33 32 33 41-3 63-29 60-74-43 2-92-5-92 41" id="aE"/><path d="M106-169C34-169 62-67 57 0H25v-261h32l-1 103c12-21 28-36 61-36 89 0 53 116 60 194h-32v-121c2-32-8-49-39-48" id="aF"/><path d="M24-231v-30h32v30H24zM24 0v-190h32V0H24" id="aG"/><path d="M117-194c89-4 53 116 60 194h-32v-121c0-31-8-49-39-48C34-167 62-67 57 0H25l-1-190h30c1 10-1 24 2 32 11-22 29-35 61-36" id="aH"/><g id="o"><use transform="matrix(0.05,0,0,0.05,0,0)" xlink:href="#aD"/><use transform="matrix(0.05,0,0,0.05,14.950000000000001,0)" xlink:href="#aE"/><use transform="matrix(0.05,0,0,0.05,24.950000000000003,0)" xlink:href="#aC"/><use transform="matrix(0.05,0,0,0.05,33.95,0)" xlink:href="#aF"/><use transform="matrix(0.05,0,0,0.05,43.95,0)" xlink:href="#aG"/><use transform="matrix(0.05,0,0,0.05,47.900000000000006,0)" xlink:href="#aH"/><use transform="matrix(0.05,0,0,0.05,57.900000000000006,0)" xlink:href="#aA"/></g><path d="M87 75C49 33 22-17 22-94c0-76 28-126 65-167h31c-38 41-64 92-64 168S80 34 118 75H87" id="aI"/><path d="M33-261c38 41 65 92 65 168S71 34 33 75H2C39 34 66-17 66-93S39-220 2-261h31" id="aJ"/><g id="p"><use transform="matrix(0.05,0,0,0.05,0,0)" xlink:href="#aI"/><use transform="matrix(0.05,0,0,0.05,5.95,0)" xlink:href="#au"/><use transform="matrix(0.05,0,0,0.05,17.95,0)" xlink:href="#aB"/><use transform="matrix(0.05,0,0,0.05,29.950000000000003,0)" xlink:href="#aD"/><use transform="matrix(0.05,0,0,0.05,44.9,0)" xlink:href="#aJ"/></g><path d="M233-177c-1 41-23 64-60 70L243 0h-38l-65-103H63V0H30v-248c88 3 205-21 203 71zM63-129c60-2 137 13 137-47 0-61-80-42-137-45v92" id="aK"/><path d="M177-190C167-65 218 103 67 71c-23-6-38-20-44-43l32-5c15 47 100 32 89-28v-30C133-14 115 1 83 1 29 1 15-40 15-95c0-56 16-97 71-98 29-1 48 16 59 35 1-10 0-23 2-32h30zM94-22c36 0 50-32 50-73 0-42-14-75-50-75-39 0-46 34-46 75s6 73 46 73" id="aL"/><path d="M135-143c-3-34-86-38-87 0 15 53 115 12 119 90S17 21 10-45l28-5c4 36 97 45 98 0-10-56-113-15-118-90-4-57 82-63 122-42 12 7 21 19 24 35" id="aM"/><path d="M141-36C126-15 110 5 73 4 37 3 15-17 15-53c-1-64 63-63 125-63 3-35-9-54-41-54-24 1-41 7-42 31l-33-3c5-37 33-52 76-52 45 0 72 20 72 64v82c-1 20 7 32 28 27v20c-31 9-61-2-59-35zM48-53c0 20 12 33 32 33 41-3 63-29 60-74-43 2-92-5-92 41zm117-205c-3 23-9 48-36 47-26-1-65-44-74 0H39c4-23 8-48 36-47s64 44 74 0h16" id="aN"/><g id="q"><use transform="matrix(0.05,0,0,0.05,0,0)" xlink:href="#aK"/><use transform="matrix(0.05,0,0,0.05,12.950000000000001,0)" xlink:href="#aA"/><use transform="matrix(0.05,0,0,0.05,22.950000000000003,0)" xlink:href="#aL"/><use transform="matrix(0.05,0,0,0.05,32.95,0)" xlink:href="#ay"/><use transform="matrix(0.05,0,0,0.05,38.900000000000006,0)" xlink:href="#aA"/><use transform="matrix(0.05,0,0,0.05,48.900000000000006,0)" xlink:href="#aM"/><use transform="matrix(0.05,0,0,0.05,57.900000000000006,0)" xlink:href="#aM"/><use transform="matrix(0.05,0,0,0.05,66.9,0)" xlink:href="#aN"/><use transform="matrix(0.05,0,0,0.05,76.9,0)" xlink:href="#ax"/></g><path d="M24 0v-261h32V0H24" id="aO"/><g id="r"><use transform="matrix(0.05,0,0,0.05,0,0)" xlink:href="#aO"/><use transform="matrix(0.05,0,0,0.05,3.95,0)" xlink:href="#aG"/><use transform="matrix(0.05,0,0,0.05,7.9,0)" xlink:href="#aH"/><use transform="matrix(0.05,0,0,0.05,17.9,0)" xlink:href="#aA"/><use transform="matrix(0.05,0,0,0.05,27.899999999999995,0)" xlink:href="#aE"/><use transform="matrix(0.05,0,0,0.05,37.9,0)" xlink:href="#ay"/></g><path d="M194 0L95-120 63-95V0H30v-248h33v124l119-124h40L117-140 236 0h-42" id="aP"/><path d="M16-82v-28h88v28H16" id="aQ"/><path d="M210-169c-67 3-38 105-44 169h-31v-121c0-29-5-50-35-48C34-165 62-65 56 0H25l-1-190h30c1 10-1 24 2 32 10-44 99-50 107 0 11-21 27-35 58-36 85-2 47 119 55 194h-31v-121c0-29-5-49-35-48" id="aR"/><g id="s"><use transform="matrix(0.05,0,0,0.05,0,0)" xlink:href="#aP"/><use transform="matrix(0.05,0,0,0.05,12,0)" xlink:href="#aQ"/><use transform="matrix(0.05,0,0,0.05,17.95,0)" xlink:href="#aR"/><use transform="matrix(0.05,0,0,0.05,32.9,0)" xlink:href="#aA"/><use transform="matrix(0.05,0,0,0.05,42.9,0)" xlink:href="#aE"/><use transform="matrix(0.05,0,0,0.05,52.900000000000006,0)" xlink:href="#aH"/><use transform="matrix(0.05,0,0,0.05,62.900000000000006,0)" xlink:href="#aM"/></g><path d="M205 0l-28-72H64L36 0H1l101-248h38L239 0h-34zm-38-99l-47-123c-12 45-31 82-46 123h93" id="aS"/><path d="M141-36C126-15 110 5 73 4 37 3 15-17 15-53c-1-64 63-63 125-63 3-35-9-54-41-54-24 1-41 7-42 31l-33-3c5-37 33-52 76-52 45 0 72 20 72 64v82c-1 20 7 32 28 27v20c-31 9-61-2-59-35zM48-53c0 20 12 33 32 33 41-3 63-29 60-74-43 2-92-5-92 41zm25-158c8-23 27-35 38-54h36v5l-58 49H73" id="aT"/><g id="t"><use transform="matrix(0.05,0,0,0.05,0,0)" xlink:href="#aS"/><use transform="matrix(0.05,0,0,0.05,12,0)" xlink:href="#aH"/><use transform="matrix(0.05,0,0,0.05,22,0)" xlink:href="#aT"/><use transform="matrix(0.05,0,0,0.05,32,0)" xlink:href="#aO"/><use transform="matrix(0.05,0,0,0.05,35.95,0)" xlink:href="#aG"/><use transform="matrix(0.05,0,0,0.05,39.900000000000006,0)" xlink:href="#aM"/><use transform="matrix(0.05,0,0,0.05,48.900000000000006,0)" xlink:href="#aA"/></g><path d="M85-194c31 0 48 13 60 33l-1-100h32l1 261h-30c-2-10 0-23-3-31C134-8 116 4 85 4 32 4 16-35 15-94c0-66 23-100 70-100zm9 24c-40 0-46 34-46 75 0 40 6 74 45 74 42 0 51-32 51-76 0-42-9-74-50-73" id="aU"/><g id="u"><use transform="matrix(0.05,0,0,0.05,0,0)" xlink:href="#aU"/><use transform="matrix(0.05,0,0,0.05,10,0)" xlink:href="#aG"/><use transform="matrix(0.05,0,0,0.05,13.949999999999998,0)" xlink:href="#aM"/><use transform="matrix(0.05,0,0,0.05,22.95,0)" xlink:href="#aC"/><use transform="matrix(0.05,0,0,0.05,31.950000000000003,0)" xlink:href="#ay"/><use transform="matrix(0.05,0,0,0.05,37.9,0)" xlink:href="#aG"/><use transform="matrix(0.05,0,0,0.05,41.85,0)" xlink:href="#aR"/><use transform="matrix(0.05,0,0,0.05,56.800000000000004,0)" xlink:href="#aG"/><use transform="matrix(0.05,0,0,0.05,60.75,0)" xlink:href="#aH"/><use transform="matrix(0.05,0,0,0.05,70.75,0)" xlink:href="#aE"/><use transform="matrix(0.05,0,0,0.05,80.75,0)" xlink:href="#aH"/><use transform="matrix(0.05,0,0,0.05,90.75,0)" xlink:href="#az"/><use transform="matrix(0.05,0,0,0.05,95.75,0)" xlink:href="#aA"/></g><path d="M30 0v-248h33v221h125V0H30" id="aV"/><path d="M212-179c-10-28-35-45-73-45-59 0-87 40-87 99 0 60 29 101 89 101 43 0 62-24 78-52l27 14C228-24 195 4 139 4 59 4 22-46 18-125c-6-104 99-153 187-111 19 9 31 26 39 46" id="aW"/><g id="v"><use transform="matrix(0.05,0,0,0.05,0,0)" xlink:href="#aI"/><use transform="matrix(0.05,0,0,0.05,5.95,0)" xlink:href="#aV"/><use transform="matrix(0.05,0,0,0.05,15.949999999999998,0)" xlink:href="#aW"/><use transform="matrix(0.05,0,0,0.05,28.899999999999995,0)" xlink:href="#aS"/><use transform="matrix(0.05,0,0,0.05,40.9,0)" xlink:href="#aJ"/></g><path d="M190 0L58-211 59 0H30v-248h39L202-35l-2-213h31V0h-41" id="aX"/><path d="M108 0H70L1-190h34L89-25l56-165h34" id="aY"/><g id="w"><use transform="matrix(0.05,0,0,0.05,0,0)" xlink:href="#aX"/><use transform="matrix(0.05,0,0,0.05,12.950000000000001,0)" xlink:href="#aE"/><use transform="matrix(0.05,0,0,0.05,22.950000000000003,0)" xlink:href="#aG"/><use transform="matrix(0.05,0,0,0.05,26.900000000000002,0)" xlink:href="#aY"/><use transform="matrix(0.05,0,0,0.05,35.900000000000006,0)" xlink:href="#aA"/></g><path d="M160-131c35 5 61 23 61 61C221 17 115-2 30 0v-248c76 3 177-17 177 60 0 33-19 50-47 57zm-97-11c50-1 110 9 110-42 0-47-63-36-110-37v79zm0 115c55-2 124 14 124-45 0-56-70-42-124-44v89" id="aZ"/><path d="M179-190L93 31C79 59 56 82 12 73V49c39 6 53-20 64-50L1-190h34L92-34l54-156h33" id="ba"/><g id="x"><use transform="matrix(0.05,0,0,0.05,0,0)" xlink:href="#aZ"/><use transform="matrix(0.05,0,0,0.05,12,0)" xlink:href="#aE"/><use transform="matrix(0.05,0,0,0.05,22,0)" xlink:href="#ba"/><use transform="matrix(0.05,0,0,0.05,31,0)" xlink:href="#aA"/><use transform="matrix(0.05,0,0,0.05,41,0)" xlink:href="#aM"/></g><path d="M9 0v-24l116-142H16v-24h144v24L44-24h123V0H9" id="bb"/><g id="y"><use transform="matrix(0.05,0,0,0.05,0,0)" xlink:href="#aP"/><use transform="matrix(0.05,0,0,0.05,12,0)" xlink:href="#aQ"/><use transform="matrix(0.05,0,0,0.05,17.95,0)" xlink:href="#aB"/><use transform="matrix(0.05,0,0,0.05,29.599999999999994,0)" xlink:href="#aG"/><use transform="matrix(0.05,0,0,0.05,33.55,0)" xlink:href="#bb"/><use transform="matrix(0.05,0,0,0.05,42.55,0)" xlink:href="#aG"/><use transform="matrix(0.05,0,0,0.05,46.5,0)" xlink:href="#aH"/><use transform="matrix(0.05,0,0,0.05,56.5,0)" xlink:href="#aF"/><use transform="matrix(0.05,0,0,0.05,66.5,0)" xlink:href="#ax"/><use transform="matrix(0.05,0,0,0.05,76.5,0)" xlink:href="#aM"/></g><g id="z"><use transform="matrix(0.05,0,0,0.05,0,0)" xlink:href="#aR"/><use transform="matrix(0.05,0,0,0.05,14.950000000000001,0)" xlink:href="#aE"/><use transform="matrix(0.05,0,0,0.05,24.950000000000003,0)" xlink:href="#aG"/><use transform="matrix(0.05,0,0,0.05,28.900000000000002,0)" xlink:href="#aM"/></g><path d="M100-194c62-1 85 37 85 99 1 63-27 99-86 99S16-35 15-95c0-66 28-99 85-99zM99-20c44 1 53-31 53-75 0-43-8-75-51-75s-53 32-53 75 10 74 51 75zM76-211c8-23 27-35 38-54h36v5l-58 49H76" id="bc"/><path d="M141 0L90-78 38 0H4l68-98-65-92h35l48 74 47-74h35l-64 92 68 98h-35" id="bd"/><g id="A"><use transform="matrix(0.05,0,0,0.05,0,0)" xlink:href="#aw"/><use transform="matrix(0.05,0,0,0.05,10,0)" xlink:href="#ay"/><use transform="matrix(0.05,0,0,0.05,15.949999999999998,0)" xlink:href="#bc"/><use transform="matrix(0.05,0,0,0.05,25.950000000000003,0)" xlink:href="#bd"/><use transform="matrix(0.05,0,0,0.05,34.95,0)" xlink:href="#aG"/><use transform="matrix(0.05,0,0,0.05,38.900000000000006,0)" xlink:href="#aR"/><use transform="matrix(0.05,0,0,0.05,53.85,0)" xlink:href="#ax"/><use transform="matrix(0.05,0,0,0.05,63.85,0)" xlink:href="#aM"/></g><g id="B"><use transform="matrix(0.05,0,0,0.05,0,0)" xlink:href="#aI"/><use transform="matrix(0.05,0,0,0.05,5.95,0)" xlink:href="#aP"/><use transform="matrix(0.05,0,0,0.05,17.95,0)" xlink:href="#aX"/><use transform="matrix(0.05,0,0,0.05,30.899999999999995,0)" xlink:href="#aX"/><use transform="matrix(0.05,0,0,0.05,43.85,0)" xlink:href="#aJ"/></g><g id="C"><use transform="matrix(0.05,0,0,0.05,0,0)" xlink:href="#aK"/><use transform="matrix(0.05,0,0,0.05,12.950000000000001,0)" xlink:href="#aA"/><use transform="matrix(0.05,0,0,0.05,22.950000000000003,0)" xlink:href="#aU"/><use transform="matrix(0.05,0,0,0.05,32.95,0)" xlink:href="#aA"/><use transform="matrix(0.05,0,0,0.05,42.95,0)" xlink:href="#aM"/></g><g id="D"><use transform="matrix(0.05,0,0,0.05,0,0)" xlink:href="#aX"/><use transform="matrix(0.05,0,0,0.05,12.950000000000001,0)" xlink:href="#aA"/><use transform="matrix(0.05,0,0,0.05,22.950000000000003,0)" xlink:href="#av"/><use transform="matrix(0.05,0,0,0.05,32.95,0)" xlink:href="#ay"/><use transform="matrix(0.05,0,0,0.05,38.900000000000006,0)" xlink:href="#aE"/><use transform="matrix(0.05,0,0,0.05,48.900000000000006,0)" xlink:href="#aG"/><use transform="matrix(0.05,0,0,0.05,52.85,0)" xlink:href="#aM"/></g><path d="M101-234c-31-9-42 10-38 44h38v23H63V0H32v-167H5v-23h27c-7-52 17-82 69-68v24" id="be"/><g id="E"><use transform="matrix(0.05,0,0,0.05,0,0)" xlink:href="#aS"/><use transform="matrix(0.05,0,0,0.05,12,0)" xlink:href="#ay"/><use transform="matrix(0.05,0,0,0.05,17.95,0)" xlink:href="#az"/><use transform="matrix(0.05,0,0,0.05,22.95,0)" xlink:href="#aG"/><use transform="matrix(0.05,0,0,0.05,26.899999999999995,0)" xlink:href="#be"/><use transform="matrix(0.05,0,0,0.05,31.899999999999995,0)" xlink:href="#aG"/><use transform="matrix(0.05,0,0,0.05,35.85,0)" xlink:href="#aC"/><use transform="matrix(0.05,0,0,0.05,44.85,0)" xlink:href="#aG"/><use transform="matrix(0.05,0,0,0.05,48.800000000000004,0)" xlink:href="#aE"/><use transform="matrix(0.05,0,0,0.05,58.800000000000004,0)" xlink:href="#aG"/><use transform="matrix(0.05,0,0,0.05,62.75,0)" xlink:href="#aM"/></g><path d="M100-194c62-1 85 37 85 99 1 63-27 99-86 99S16-35 15-95c0-66 28-99 85-99zM99-20c44 1 53-31 53-75 0-43-8-75-51-75s-53 32-53 75 10 74 51 75zm66-238c-3 23-9 48-36 47-26-1-65-44-74 0H39c4-23 8-48 36-47s64 44 74 0h16" id="bf"/><g id="F"><use transform="matrix(0.05,0,0,0.05,0,0)" xlink:href="#aK"/><use transform="matrix(0.05,0,0,0.05,12.950000000000001,0)" xlink:href="#aA"/><use transform="matrix(0.05,0,0,0.05,22.950000000000003,0)" xlink:href="#aL"/><use transform="matrix(0.05,0,0,0.05,32.95,0)" xlink:href="#ay"/><use transform="matrix(0.05,0,0,0.05,38.900000000000006,0)" xlink:href="#aA"/><use transform="matrix(0.05,0,0,0.05,48.900000000000006,0)" xlink:href="#aM"/><use transform="matrix(0.05,0,0,0.05,57.900000000000006,0)" xlink:href="#aM"/><use transform="matrix(0.05,0,0,0.05,66.9,0)" xlink:href="#bf"/><use transform="matrix(0.05,0,0,0.05,76.9,0)" xlink:href="#aA"/><use transform="matrix(0.05,0,0,0.05,86.9,0)" xlink:href="#aM"/></g><g id="G"><use transform="matrix(0.05,0,0,0.05,0,0)" xlink:href="#aw"/><use transform="matrix(0.05,0,0,0.05,10,0)" xlink:href="#aA"/><use transform="matrix(0.05,0,0,0.05,20,0)" xlink:href="#aH"/><use transform="matrix(0.05,0,0,0.05,30,0)" xlink:href="#aE"/><use transform="matrix(0.05,0,0,0.05,40,0)" xlink:href="#aO"/><use transform="matrix(0.05,0,0,0.05,43.95,0)" xlink:href="#aG"/><use transform="matrix(0.05,0,0,0.05,47.900000000000006,0)" xlink:href="#bb"/><use transform="matrix(0.05,0,0,0.05,56.900000000000006,0)" xlink:href="#aE"/><use transform="matrix(0.05,0,0,0.05,66.9,0)" xlink:href="#aU"/><use transform="matrix(0.05,0,0,0.05,76.9,0)" xlink:href="#aE"/><use transform="matrix(0.05,0,0,0.05,86.9,0)" xlink:href="#aM"/></g><path d="M100-194c63 0 86 42 84 106H49c0 40 14 67 53 68 26 1 43-12 49-29l28 8c-11 28-37 45-77 45C44 4 14-33 15-96c1-61 26-98 85-98zm52 81c6-60-76-77-97-28-3 7-6 17-6 28h103zm-74-98c8-23 27-35 38-54h36v5l-58 49H78" id="bg"/><g id="H"><use transform="matrix(0.05,0,0,0.05,0,0)" xlink:href="#aD"/><use transform="matrix(0.05,0,0,0.05,14.950000000000001,0)" xlink:href="#bg"/><use transform="matrix(0.05,0,0,0.05,24.950000000000003,0)" xlink:href="#az"/><use transform="matrix(0.05,0,0,0.05,29.950000000000003,0)" xlink:href="#ax"/><use transform="matrix(0.05,0,0,0.05,39.95,0)" xlink:href="#aU"/><use transform="matrix(0.05,0,0,0.05,49.95,0)" xlink:href="#ax"/><use transform="matrix(0.05,0,0,0.05,59.95,0)" xlink:href="#aM"/></g><path d="M30 0v-248h187v28H63v79h144v27H63v87h162V0H30" id="bh"/><path d="M115-194c53 0 69 39 70 98 0 66-23 100-70 100C84 3 66-7 56-30L54 0H23l1-261h32v101c10-23 28-34 59-34zm-8 174c40 0 45-34 45-75 0-40-5-75-45-74-42 0-51 32-51 76 0 43 10 73 51 73" id="bi"/><g id="I"><use transform="matrix(0.05,0,0,0.05,0,0)" xlink:href="#bh"/><use transform="matrix(0.05,0,0,0.05,12,0)" xlink:href="#aM"/><use transform="matrix(0.05,0,0,0.05,21,0)" xlink:href="#aA"/><use transform="matrix(0.05,0,0,0.05,31,0)" xlink:href="#aR"/><use transform="matrix(0.05,0,0,0.05,45.95,0)" xlink:href="#bi"/><use transform="matrix(0.05,0,0,0.05,55.95,0)" xlink:href="#aO"/><use transform="matrix(0.05,0,0,0.05,59.900000000000006,0)" xlink:href="#aA"/></g><path d="M197 0v-115H63V0H30v-248h33v105h134v-105h34V0h-34" id="bj"/><path d="M145-31C134-9 116 4 85 4 32 4 16-35 15-94c0-59 17-99 70-100 32-1 48 14 60 33 0-11-1-24 2-32h30l-1 268h-32zM93-21c41 0 51-33 51-76s-8-73-50-73c-40 0-46 35-46 75s5 74 45 74" id="bk"/><g id="J"><use transform="matrix(0.05,0,0,0.05,0,0)" xlink:href="#bj"/><use transform="matrix(0.05,0,0,0.05,12.950000000000001,0)" xlink:href="#aG"/><use transform="matrix(0.05,0,0,0.05,16.900000000000002,0)" xlink:href="#aA"/><use transform="matrix(0.05,0,0,0.05,26.900000000000002,0)" xlink:href="#ay"/><use transform="matrix(0.05,0,0,0.05,32.85,0)" xlink:href="#aT"/><use transform="matrix(0.05,0,0,0.05,42.85,0)" xlink:href="#ay"/><use transform="matrix(0.05,0,0,0.05,48.800000000000004,0)" xlink:href="#bk"/><use transform="matrix(0.05,0,0,0.05,58.800000000000004,0)" xlink:href="#av"/><use transform="matrix(0.05,0,0,0.05,68.80000000000001,0)" xlink:href="#aG"/><use transform="matrix(0.05,0,0,0.05,72.75000000000001,0)" xlink:href="#aC"/><use transform="matrix(0.05,0,0,0.05,81.75000000000001,0)" xlink:href="#ax"/><use transform="matrix(0.05,0,0,0.05,91.75000000000001,0)" xlink:href="#aM"/></g><path d="M24 0v-248h195v40H76v63h132v40H76v65h150V0H24" id="bl"/><g id="K"><use transform="matrix(0.06172839506172839,0,0,0.06172839506172839,0,0)" xlink:href="#bl"/><use transform="matrix(0.06172839506172839,0,0,0.06172839506172839,14.814814814814813,0)" xlink:href="#ac"/><use transform="matrix(0.06172839506172839,0,0,0.06172839506172839,27.160493827160494,0)" xlink:href="#aa"/><use transform="matrix(0.06172839506172839,0,0,0.06172839506172839,34.50617283950617,0)" xlink:href="#Z"/><use transform="matrix(0.06172839506172839,0,0,0.06172839506172839,40.67901234567901,0)" xlink:href="#ab"/><use transform="matrix(0.06172839506172839,0,0,0.06172839506172839,60.4320987654321,0)" xlink:href="#ai"/><use transform="matrix(0.06172839506172839,0,0,0.06172839506172839,72.77777777777779,0)" xlink:href="#as"/><use transform="matrix(0.06172839506172839,0,0,0.06172839506172839,85.12345679012347,0)" xlink:href="#ao"/><use transform="matrix(0.06172839506172839,0,0,0.06172839506172839,97.46913580246915,0)" xlink:href="#X"/></g><g id="L"><use transform="matrix(0.06172839506172839,0,0,0.06172839506172839,0,0)" xlink:href="#ag"/><use transform="matrix(0.06172839506172839,0,0,0.06172839506172839,13.518518518518517,0)" xlink:href="#ae"/></g><g id="M"><use transform="matrix(0.06172839506172839,0,0,0.06172839506172839,0,0)" xlink:href="#ag"/><use transform="matrix(0.06172839506172839,0,0,0.06172839506172839,13.518518518518517,0)" xlink:href="#ae"/><use transform="matrix(0.06172839506172839,0,0,0.06172839506172839,25.864197530864196,0)" xlink:href="#af"/><use transform="matrix(0.06172839506172839,0,0,0.06172839506172839,39.382716049382715,0)" xlink:href="#ac"/><use transform="matrix(0.06172839506172839,0,0,0.06172839506172839,51.72839506172839,0)" xlink:href="#Z"/><use transform="matrix(0.06172839506172839,0,0,0.06172839506172839,57.901234567901234,0)" xlink:href="#ag"/><use transform="matrix(0.06172839506172839,0,0,0.06172839506172839,71.41975308641975,0)" xlink:href="#ai"/><use transform="matrix(0.06172839506172839,0,0,0.06172839506172839,83.76543209876543,0)" xlink:href="#ag"/><use transform="matrix(0.06172839506172839,0,0,0.06172839506172839,97.28395061728395,0)" xlink:href="#ae"/></g><path d="M96-269c9-18 26-28 38-43h37v5l-55 38H96zM205 0l-28-72H64L36 0H1l101-248h38L239 0h-34zm-38-99l-47-123c-12 45-31 82-46 123h93" id="bm"/><g id="N"><use transform="matrix(0.05,0,0,0.05,0,0)" xlink:href="#bm"/><use transform="matrix(0.05,0,0,0.05,12,0)" xlink:href="#ay"/><use transform="matrix(0.05,0,0,0.05,17.95,0)" xlink:href="#aY"/><use transform="matrix(0.05,0,0,0.05,26.950000000000003,0)" xlink:href="#ax"/><use transform="matrix(0.05,0,0,0.05,36.95,0)" xlink:href="#ay"/><use transform="matrix(0.05,0,0,0.05,42.900000000000006,0)" xlink:href="#aA"/></g><g id="O"><use transform="matrix(0.05,0,0,0.05,0,0)" xlink:href="#aU"/><use transform="matrix(0.05,0,0,0.05,10,0)" xlink:href="#aA"/></g><g id="P"><use transform="matrix(0.05,0,0,0.05,0,0)" xlink:href="#aU"/><use transform="matrix(0.05,0,0,0.05,10,0)" xlink:href="#aA"/><use transform="matrix(0.05,0,0,0.05,20,0)" xlink:href="#aC"/><use transform="matrix(0.05,0,0,0.05,29,0)" xlink:href="#aG"/><use transform="matrix(0.05,0,0,0.05,32.95,0)" xlink:href="#aM"/><use transform="matrix(0.05,0,0,0.05,41.95,0)" xlink:href="#aN"/><use transform="matrix(0.05,0,0,0.05,51.95,0)" xlink:href="#ax"/></g><path d="M180 0L97-118 63-96 45 0H11l48-248h34L69-126c44-43 94-81 141-122h43L121-137 219 0h-39" id="bn"/><path d="M111-194c62-3 86 47 72 106H45c-7 38 6 69 45 68 27-1 43-14 53-32l24 11C152-15 129 4 87 4 38 3 12-23 12-71c0-70 32-119 99-123zm44 81c14-66-71-72-95-28-4 8-8 17-11 28h106" id="bo"/><path d="M66-151c12-25 30-51 66-40l-6 26C45-176 58-65 38 0H6l36-190h30" id="bp"/><path d="M67-158c22-48 132-52 116 29L158 0h-32l25-140c3-38-53-32-70-12C52-117 51-52 38 0H6l36-190h30" id="bq"/><path d="M6 0l50-261h32L37 0H6" id="br"/><g id="Q"><use transform="matrix(0.05,0,0,0.05,0,0)" xlink:href="#bn"/><use transform="matrix(0.05,0,0,0.05,12,0)" xlink:href="#bo"/><use transform="matrix(0.05,0,0,0.05,22,0)" xlink:href="#bp"/><use transform="matrix(0.05,0,0,0.05,27.950000000000003,0)" xlink:href="#bq"/><use transform="matrix(0.05,0,0,0.05,37.95,0)" xlink:href="#bo"/><use transform="matrix(0.05,0,0,0.05,47.95,0)" xlink:href="#br"/></g><path d="M133-28C103 26-5 8 13-77c13-62 24-115 90-117 29-1 46 15 56 35l19-102h32L160 0h-30zM45-64c-2 27 10 43 35 43 54-1 69-50 69-103 0-29-15-46-42-46-53-1-58 58-62 106" id="bs"/><path d="M55-144c13 50 104 24 104 88C159 21 15 23 1-39l26-10c6 40 102 42 102-4-13-50-104-23-104-87 0-71 143-71 148-8l-29 4c-5-35-85-37-89 0" id="bt"/><path d="M50-231l6-30h32l-6 30H50zM6 0l37-190h31L37 0H6" id="bu"/><path d="M51-54c-9 22 5 41 31 30L79-1C43 14 10-4 19-52l22-115H19l5-23h22l19-43h21l-9 43h35l-4 23H73" id="bv"/><path d="M198-190L69 30C53 58 25 83-20 72c4-11-1-27 19-22 33-1 43-29 59-52L20-190h32L79-34l84-156h35" id="bw"/><g id="R"><use transform="matrix(0.05,0,0,0.05,0,0)" xlink:href="#bs"/><use transform="matrix(0.05,0,0,0.05,10,0)" xlink:href="#bo"/><use transform="matrix(0.05,0,0,0.05,20,0)" xlink:href="#bq"/><use transform="matrix(0.05,0,0,0.05,30,0)" xlink:href="#bt"/><use transform="matrix(0.05,0,0,0.05,39,0)" xlink:href="#bu"/><use transform="matrix(0.05,0,0,0.05,42.95,0)" xlink:href="#bv"/><use transform="matrix(0.05,0,0,0.05,47.95,0)" xlink:href="#bw"/></g><path d="M248-111c6-24 9-61-24-58-72 9-57 108-77 169h-31l26-142c3-37-50-30-64-10C52-115 50-51 37 0H6l36-190h30c-1 10-6 24-4 32 13-43 101-52 105 5 13-22 29-41 61-41 90 0 28 129 23 194h-31" id="bx"/><path d="M165-48c-4 18 1 34 23 27l-3 20c-29 8-62 0-52-35h-2C116-14 99 4 63 4 30 4 8-16 8-49c0-68 71-67 138-67 10-26 0-56-31-54-26 1-42 9-47 31l-32-5c8-67 160-71 144 15-5 28-9 54-15 81zM42-50c3 52 80 24 89-6 7-12 7-24 11-38-47 1-103-4-100 44" id="by"/><path d="M30-147c31-64 166-65 159 27C183-49 158 1 86 4 9 8 1-88 30-147zM88-20c53 0 68-48 68-100 0-31-11-51-44-50-52 1-68 46-68 97 0 32 13 53 44 53" id="bz"/><g id="S"><use transform="matrix(0.05,0,0,0.05,0,0)" xlink:href="#bo"/><use transform="matrix(0.05,0,0,0.05,10,0)" xlink:href="#bt"/><use transform="matrix(0.05,0,0,0.05,19,0)" xlink:href="#bv"/><use transform="matrix(0.05,0,0,0.05,24,0)" xlink:href="#bu"/><use transform="matrix(0.05,0,0,0.05,27.950000000000003,0)" xlink:href="#bx"/><use transform="matrix(0.05,0,0,0.05,42.9,0)" xlink:href="#by"/><use transform="matrix(0.05,0,0,0.05,52.900000000000006,0)" xlink:href="#bv"/><use transform="matrix(0.05,0,0,0.05,57.900000000000006,0)" xlink:href="#bz"/><use transform="matrix(0.05,0,0,0.05,67.9,0)" xlink:href="#bp"/></g><path d="M219-77C219 17 104-2 11 0l48-248c73 2 169-15 169 57 0 38-24 54-60 60 29 5 51 21 51 54zm-26-111c0-44-62-31-105-33l-16 79c55 0 121 9 121-46zm-7 110c-1-49-69-36-119-38L50-27c61-1 137 12 136-51" id="bA"/><g id="T"><use transform="matrix(0.05,0,0,0.05,0,0)" xlink:href="#bA"/><use transform="matrix(0.05,0,0,0.05,12,0)" xlink:href="#by"/><use transform="matrix(0.05,0,0,0.05,22,0)" xlink:href="#bw"/><use transform="matrix(0.05,0,0,0.05,31,0)" xlink:href="#bo"/><use transform="matrix(0.05,0,0,0.05,41,0)" xlink:href="#bt"/><use transform="matrix(0.05,0,0,0.05,50,0)" xlink:href="#bu"/><use transform="matrix(0.05,0,0,0.05,53.95,0)" xlink:href="#by"/><use transform="matrix(0.05,0,0,0.05,63.95,0)" xlink:href="#bq"/></g></defs></g></svg>